<svg xmlns="http://www.w3.org/2000/svg" xmlns:ev="http://www.w3.org/2001/xml-events" xmlns:xlink="http://www.w3.org/1999/xlink" width="566.733" height="216.869" class="st9" color-interpolation-filters="sRGB" viewBox="0 0 425.05 162.652" xml:space="preserve"><style type="text/css">.st1{fill:#4672c4;stroke:#c7c8c8;stroke-width:.25}.st2{fill:#feffff;font-family:Calibri;font-size:.833336em}.st3,.st4{stroke:#000}.st3{marker-end:url(#mrkr4-12);stroke-linecap:round;stroke-linejoin:round;stroke-width:1}.st4{fill:#000;fill-opacity:1;stroke-opacity:1;stroke-width:.28409090909091}.st5{stroke:#4672c4;stroke-linecap:round;stroke-linejoin:round;stroke-width:1}.st6{fill:#fff;stroke:none;stroke-linecap:butt;stroke-width:7.2}.st7{fill:#3d64ac;font-family:Calibri;font-size:.666664em}.st8{font-size:1em}.st9{fill:none;fill-rule:evenodd;font-size:12px;overflow:visible;stroke-linecap:square;stroke-miterlimit:3}</style><defs id="Markers"><g id="lend4"><path d="M 2 1 L 0 0 L 2 -1 L 2 1" style="stroke:none"/></g><marker id="mrkr4-12" class="st4" markerUnits="strokeWidth" orient="auto" overflow="visible" refX="-7.04"><use transform="scale(-3.52,-3.52)" xlink:href="#lend4"/></marker></defs><g><title>Page-1</title><g id="shape1-1" transform="translate(140.4,-72.4018)"><title>Rectangle</title><desc>ready</desc><rect width="108" height="72" x="0" y="90.652" class="st1"/><text x="42.48" y="129.65" class="st2">ready</text></g><g id="shape2-4" transform="translate(298.8,-72.4018)"><title>Rectangle.2</title><desc>disposed</desc><rect width="108" height="72" x="0" y="90.652" class="st1"/><text x="35.94" y="129.65" class="st2">disposed</text></g><g id="shape14-7" transform="translate(248.4,-108.402)"><title>Cause 1</title><path d="M0 162.65 L43.36 162.65" class="st3"/></g><g id="shape17-13" transform="translate(103.748,126.352) rotate(-90)"><title>Label</title><desc>container.dispose() is called</desc><path d="M13.6 162.65 L72.1 167.15" class="st5"/><rect width="62.695" height="19.2" x="95.957" y="-23.201" class="st6" transform="rotate(90)"/><text x="95.96" y="-16" class="st7" transform="rotate(90)">container.dispose() <tspan x="132.81" class="st8" dy="1.2em">is called</tspan></text></g><g id="shape19-19" transform="translate(63.9,-94.9017)"><title>Circle</title><path d="M0 149.15 A13.5 13.5 0 0 1 27 149.15 A13.5 13.5 0 1 1 0 149.15 Z" class="st1"/></g><g id="shape20-21" transform="translate(90,-108.402)"><title>Cause 1.21</title><path d="M0 162.65 L43.36 162.65" class="st3"/></g><g id="shape21-26" transform="translate(-60.9517,144.652) rotate(-90)"><title>Label.22</title><desc>createContainer() or getContainter is called</desc><path d="M18.4 162.65 L90.4 167.15" class="st5"/><rect width="57.503" height="28.8" x="101.149" y="-32.801" class="st6" transform="rotate(90)"/><text x="101.15" y="-25.6" class="st7" transform="rotate(90)">createContainer() <tspan x="104.72" class="st8" dy="1.2em">or getContainter</tspan><tspan x="131" class="st8" dy="1.2em"> </tspan>is called</text></g></g></svg>