<svg xmlns="http://www.w3.org/2000/svg" width="48" height="48" fill="none" viewBox="0 0 48 48"><g clip-path="url(#clip0_68602_14122)"><path fill="url(#paint0_radial_68602_14122)" d="M43.9108 16.6609C43.4754 21.4051 40.7761 25.7028 36.3604 27.4346C34.3199 28.1214 32.1035 28.599 30.0232 28.9366C21.8695 30.26 20.0088 37.7296 23.9967 43.9955L24.0005 43.9999C35.0461 43.9999 44.0003 35.0457 44.0003 24.0001L44.0003 15.2159C44.0003 15.368 43.9296 16.4558 43.9108 16.6609Z"/><path fill="url(#paint1_linear_68602_14122)" fill-opacity=".5" d="M43.9108 16.6609C43.4754 21.4051 40.7761 25.7028 36.3604 27.4346C34.3199 28.1214 32.1035 28.599 30.0232 28.9366C21.8695 30.26 20.0088 37.7296 23.9967 43.9955L24.0005 43.9999C35.0461 43.9999 44.0003 35.0457 44.0003 24.0001L44.0003 15.2159C44.0003 15.368 43.9296 16.4558 43.9108 16.6609Z"/><path fill="url(#paint2_radial_68602_14122)" d="M43.9108 16.6609C43.4754 21.4051 40.7761 25.7028 36.3604 27.4346C34.3199 28.1214 32.1035 28.599 30.0232 28.9366C21.8695 30.26 20.0088 37.7296 23.9967 43.9955L24.0005 43.9999C35.0461 43.9999 44.0003 35.0457 44.0003 24.0001L44.0003 15.2159C44.0003 15.368 43.9296 16.4558 43.9108 16.6609Z"/><g filter="url(#filter0_d_68602_14122)"><path fill="url(#paint3_linear_68602_14122)" d="M16.1592 22.8721C18.3079 19.4519 22.8491 17.006 31.0173 17.006C31.1749 17.006 31.3311 17.0033 31.486 16.9981C38.0958 16.8219 43.4409 12.7156 43.9952 6.20679C43.9959 9.17194 43.9998 12.1371 43.9998 15.1022C43.9998 20.5627 41.1872 25.5626 36.3603 27.4347C34.3198 28.1215 32.1034 28.5991 30.0231 28.9367C21.8675 30.2604 20.0078 37.7332 23.9995 44C18.6597 43.284 11.3024 30.5953 16.1592 22.8721Z"/><path fill="url(#paint4_radial_68602_14122)" fill-opacity=".86" d="M16.1592 22.8721C18.3079 19.4519 22.8491 17.006 31.0173 17.006C31.1749 17.006 31.3311 17.0033 31.486 16.9981C38.0958 16.8219 43.4409 12.7156 43.9952 6.20679C43.9959 9.17194 43.9998 12.1371 43.9998 15.1022C43.9998 20.5627 41.1872 25.5626 36.3603 27.4347C34.3198 28.1215 32.1034 28.5991 30.0231 28.9367C21.8675 30.2604 20.0078 37.7332 23.9995 44C18.6597 43.284 11.3024 30.5953 16.1592 22.8721Z"/><path fill="url(#paint5_radial_68602_14122)" fill-opacity=".8" d="M16.1592 22.8721C18.3079 19.4519 22.8491 17.006 31.0173 17.006C31.1749 17.006 31.3311 17.0033 31.486 16.9981C38.0958 16.8219 43.4409 12.7156 43.9952 6.20679C43.9959 9.17194 43.9998 12.1371 43.9998 15.1022C43.9998 20.5627 41.1872 25.5626 36.3603 27.4347C34.3198 28.1215 32.1034 28.5991 30.0231 28.9367C21.8675 30.2604 20.0078 37.7332 23.9995 44C18.6597 43.284 11.3024 30.5953 16.1592 22.8721Z"/></g><g filter="url(#filter1_d_68602_14122)"><path fill="url(#paint6_radial_68602_14122)" d="M41.913 4.00024H24.0307C12.9681 4.00024 4 12.9545 4 24.0002C4 35.0459 12.9681 44.0002 24.0307 44.0002C16.3266 43.0332 4.35219 17.0002 31.0415 17.0002C37.8606 17.0002 43.4382 12.85 43.9967 6.18588C43.9967 6.14678 43.998 6.103 43.9998 6.05537C43.9828 4.91873 43.0571 4.00231 41.9169 4.00025C41.9156 4.00025 41.9143 4.00024 41.913 4.00024Z"/><path fill="url(#paint7_linear_68602_14122)" d="M41.913 4.00024H24.0307C12.9681 4.00024 4 12.9545 4 24.0002C4 35.0459 12.9681 44.0002 24.0307 44.0002C16.3266 43.0332 4.35219 17.0002 31.0415 17.0002C37.8606 17.0002 43.4382 12.85 43.9967 6.18588C43.9967 6.14678 43.998 6.103 43.9998 6.05537C43.9828 4.91873 43.0571 4.00231 41.9169 4.00025C41.9156 4.00025 41.9143 4.00024 41.913 4.00024Z"/><path fill="url(#paint8_radial_68602_14122)" fill-opacity=".6" d="M41.913 4.00024H24.0307C12.9681 4.00024 4 12.9545 4 24.0002C4 35.0459 12.9681 44.0002 24.0307 44.0002C16.3266 43.0332 4.35219 17.0002 31.0415 17.0002C37.8606 17.0002 43.4382 12.85 43.9967 6.18588C43.9967 6.14678 43.998 6.103 43.9998 6.05537C43.9828 4.91873 43.0571 4.00231 41.9169 4.00025C41.9156 4.00025 41.9143 4.00024 41.913 4.00024Z"/></g></g><defs><filter id="filter0_d_68602_14122" width="35.053" height="43.419" x="13.167" y="4.8" color-interpolation-filters="sRGB" filterUnits="userSpaceOnUse"><feFlood flood-opacity="0" result="BackgroundImageFix"/><feColorMatrix in="SourceAlpha" result="hardAlpha" type="matrix" values="0 0 0 0 0 0 0 0 0 0 0 0 0 0 0 0 0 0 127 0"/><feOffset dx="1.407" dy="1.407"/><feGaussianBlur stdDeviation="1.407"/><feComposite in2="hardAlpha" operator="out"/><feColorMatrix type="matrix" values="0 0 0 0 0.0705882 0 0 0 0 0.156863 0 0 0 0 0.509804 0 0 0 0.4 0"/><feBlend in2="BackgroundImageFix" mode="normal" result="effect1_dropShadow_68602_14122"/><feBlend in="SourceGraphic" in2="effect1_dropShadow_68602_14122" mode="normal" result="shape"/></filter><filter id="filter1_d_68602_14122" width="45.626" height="45.626" x="2.593" y="2.594" color-interpolation-filters="sRGB" filterUnits="userSpaceOnUse"><feFlood flood-opacity="0" result="BackgroundImageFix"/><feColorMatrix in="SourceAlpha" result="hardAlpha" type="matrix" values="0 0 0 0 0 0 0 0 0 0 0 0 0 0 0 0 0 0 127 0"/><feOffset dx="1.407" dy="1.407"/><feGaussianBlur stdDeviation="1.407"/><feComposite in2="hardAlpha" operator="out"/><feColorMatrix type="matrix" values="0 0 0 0 0.0705882 0 0 0 0 0.156863 0 0 0 0 0.509804 0 0 0 0.4 0"/><feBlend in2="BackgroundImageFix" mode="normal" result="effect1_dropShadow_68602_14122"/><feBlend in="SourceGraphic" in2="effect1_dropShadow_68602_14122" mode="normal" result="shape"/></filter><radialGradient id="paint0_radial_68602_14122" cx="0" cy="0" r="1" gradientTransform="translate(21.7392 49.9133) rotate(-57.5876) scale(38.9352 44.6285)" gradientUnits="userSpaceOnUse"><stop stop-color="#2F27A5"/><stop offset="1" stop-color="#7650E2"/></radialGradient><linearGradient id="paint1_linear_68602_14122" x1="46.087" x2="24.348" y1="27.479" y2="43.478" gradientUnits="userSpaceOnUse"><stop stop-color="#CC23D1" stop-opacity=".8"/><stop offset="1" stop-color="#CC23D1" stop-opacity="0"/></linearGradient><radialGradient id="paint2_radial_68602_14122" cx="0" cy="0" r="1" gradientTransform="translate(36.4137 -33.5859) rotate(96.789) scale(72.9246 78.6188)" gradientUnits="userSpaceOnUse"><stop offset=".604" stop-color="#3B148A"/><stop offset=".974" stop-color="#3B148A" stop-opacity="0"/></radialGradient><linearGradient id="paint3_linear_68602_14122" x1="36.153" x2="25.764" y1="27.382" y2="36.326" gradientUnits="userSpaceOnUse"><stop stop-color="#48B0FC"/><stop offset="1" stop-color="#063EB6"/></linearGradient><radialGradient id="paint4_radial_68602_14122" cx="0" cy="0" r="1" gradientTransform="translate(41.0434 11.3084) rotate(119.771) scale(47.2842 37.464)" gradientUnits="userSpaceOnUse"><stop stop-color="#AB59FC"/><stop offset="1" stop-color="#277FE7"/></radialGradient><radialGradient id="paint5_radial_68602_14122" cx="0" cy="0" r="1" gradientTransform="translate(25.5652 -66.0829) rotate(90.9784) scale(91.6655 81.4155)" gradientUnits="userSpaceOnUse"><stop offset=".604" stop-color="#3B148A"/><stop offset=".974" stop-color="#3B148A" stop-opacity="0"/></radialGradient><radialGradient id="paint6_radial_68602_14122" cx="0" cy="0" r="1" gradientTransform="translate(43.5392 2.43502) rotate(-55.7668) scale(25.5391 39.7574)" gradientUnits="userSpaceOnUse"><stop stop-color="#55E1FE"/><stop offset=".485" stop-color="#29C3FF"/><stop offset="1" stop-color="#0FAFFF"/></radialGradient><linearGradient id="paint7_linear_68602_14122" x1="21.287" x2="-.43" y1="24" y2="8.267" gradientUnits="userSpaceOnUse"><stop offset=".006" stop-color="#839BFE" stop-opacity="0"/><stop offset=".695" stop-color="#DC8AFD" stop-opacity=".8"/></linearGradient><radialGradient id="paint8_radial_68602_14122" cx="0" cy="0" r="1" gradientTransform="translate(40.1561 -8.25769) rotate(122.414) scale(63.5512 52.1665)" gradientUnits="userSpaceOnUse"><stop offset=".689" stop-color="#2052CB" stop-opacity="0"/><stop offset="1" stop-color="#2052CB"/></radialGradient><clipPath id="clip0_68602_14122"><path fill="#fff" d="M4 4.00024H41.9131C43.0656 4.00024 44 4.9346 44 6.08719V44H24.1738C13.0321 44 4 34.9679 4 23.8262V4.00024Z"/></clipPath></defs></svg>