<svg xmlns="http://www.w3.org/2000/svg" xmlns:ev="http://www.w3.org/2001/xml-events" xmlns:xlink="http://www.w3.org/1999/xlink" width="985.536" height="387.064" class="st12" color-interpolation-filters="sRGB" viewBox="0 0 739.15 290.299" xml:space="preserve"><style type="text/css">.st1{fill:#4672c4;stroke:#c7c8c8;stroke-width:.25}.st2{fill:#feffff;font-family:Calibri;font-size:.833336em}.st3,.st4{stroke:#000}.st3{marker-end:url(#mrkr4-18);stroke-linecap:round;stroke-linejoin:round;stroke-width:1}.st4{fill:#000;fill-opacity:1;stroke-opacity:1;stroke-width:.28409090909091}.st5{stroke:#4672c4;stroke-linecap:round;stroke-linejoin:round;stroke-width:1}.st6{fill:#fff;stroke:none;stroke-linecap:butt}.st7{fill:#3d64ac;font-family:Calibri;font-size:.666664em}.st8{font-size:1em}.st9{fill:#fff;stroke:none;stroke-linecap:butt;stroke-width:7.2}.st10{marker-end:url(#mrkr2-58);stroke:#000;stroke-width:.75}.st11{fill:#000;fill-opacity:1;stroke:#000;stroke-opacity:1;stroke-width:.22935779816514}.st12{fill:none;fill-rule:evenodd;font-size:12px;overflow:visible;stroke-linecap:square;stroke-miterlimit:3}</style><defs id="Markers"><g id="lend4"><path d="M 2 1 L 0 0 L 2 -1 L 2 1" style="stroke:none"/></g><marker id="mrkr4-18" class="st4" markerUnits="strokeWidth" orient="auto" overflow="visible" refX="-7.04"><use transform="scale(-3.52,-3.52)" xlink:href="#lend4"/></marker><g id="lend2"><path d="M 1 1 L 0 0 L 1 -1 L 1 1" style="stroke:none"/></g><marker id="mrkr2-58" class="st11" markerUnits="strokeWidth" orient="auto" overflow="visible" refX="-4.36"><use transform="scale(-4.36,-4.36)" xlink:href="#lend2"/></marker></defs><g><title>Page-1</title><g id="shape1-1" transform="translate(140.4,-91.6017)"><title>Rectangle</title><desc>disconnected</desc><rect width="108" height="72" x="0" y="218.299" class="st1"/><text x="26.87" y="257.3" class="st2">disconnected</text></g><g id="shape2-4" transform="translate(298.8,-91.6017)"><title>Rectangle.2</title><desc>establishing connection</desc><rect width="108" height="72" x="0" y="218.299" class="st1"/><text x="6.03" y="257.3" class="st2">establishing connection</text></g><g id="shape3-7" transform="translate(455.4,-91.3017)"><title>Rectangle.3</title><desc>catching up</desc><rect width="108" height="72" x="0" y="218.299" class="st1"/><text x="30.56" y="257.3" class="st2">catching up</text></g><g id="shape4-10" transform="translate(612.9,-91.3017)"><title>Rectangle.4</title><desc>connected</desc><rect width="108" height="72" x="0" y="218.299" class="st1"/><text x="32.6" y="257.3" class="st2">connected</text></g><g id="shape14-13" transform="translate(248.4,-127.602)"><title>Cause 1</title><path d="M0 290.3 L43.36 290.3" class="st3"/></g><g id="shape15-19" transform="translate(408.592,-127.596) rotate(0.35369)"><title>Cause 1.15</title><path d="M0 290.3 L41.56 290.3" class="st3"/></g><g id="shape16-24" transform="translate(563.4,-127.302)"><title>Cause 1.16</title><path d="M0 290.3 L43.36 290.3" class="st3"/></g><g id="shape17-29" transform="translate(-26.3662,272.299) rotate(-90)"><title>Label</title><desc>attach() or getContainer() or connect() is called, or Fluid c...</desc><path d="M37.6 290.3 L109.6 294.8" class="st5"/><rect width="56.101" height="67.199" x="230.198" y="-71.201" class="st6" transform="rotate(90)"/><text x="252.02" y="-64" class="st7" transform="rotate(90)">attach() or <tspan x="230.2" class="st8" dy="1.2em">getContainer() or </tspan><tspan x="255.4" class="st8" dy="1.2em">connect()</tspan><tspan x="247.83" class="st8" dy="1.2em"> </tspan>is called, or<tspan x="249.01" class="st8" dy="1.2em"> </tspan>Fluid client <tspan x="235.29" class="st8" dy="1.2em">runtime tries to </tspan><tspan x="253.48" class="st8" dy="1.2em">reconnect</tspan></text></g><g id="shape18-40" transform="translate(135.57,248.434) rotate(-90)"><title>Label.18</title><desc>Partial connection established</desc><path d="M13.6 290.3 L85.6 293.11" class="st5"/><rect width="59.054" height="19.2" x="227.245" y="-23.201" class="st6" transform="rotate(90)"/><text x="227.24" y="-16" class="st7" transform="rotate(90)">Partial connection <tspan x="249.29" class="st8" dy="1.2em">established</tspan></text></g><g id="shape19-46" transform="translate(295.601,248.599) rotate(-90)"><title>Label.19</title><desc>Client has all data values from the Fluid service</desc><path d="M18.4 290.3 L85.6 294.8" class="st5"/><rect width="57.441" height="28.8" x="228.858" y="-32.801" class="st9" transform="rotate(90)"/><text x="228.86" y="-25.6" class="st7" transform="rotate(90)">Client has all data <tspan x="235.38" class="st8" dy="1.2em">values from the </tspan><tspan x="246.03" class="st8" dy="1.2em">Fluid service</tspan></text></g><g id="shape21-53" transform="translate(666.716,416.995) rotate(-179.964)"><title>Multi-Line</title><path d="M0 290.3 L0.03 342.05 L472.53 339.5 L472.5 293.57" class="st10"/></g><g id="shape22-59" transform="translate(216.289,64.4035) rotate(-90)"><title>Label.22</title><desc>disconnect() is called or a network problem breaks the connec...</desc><path d="M23.2 218.3 L-10.54 216.4" class="st5"/><rect width="63.671" height="38.399" x="222.299" y="-42.401" class="st9" transform="rotate(90)"/><text x="222.3" y="-35.2" class="st7" transform="rotate(90)">disconnect() is <tspan x="222.3" class="st8" dy="1.2em">called or a network </tspan><tspan x="222.3" class="st8" dy="1.2em">problem breaks the </tspan><tspan x="222.3" class="st8" dy="1.2em">connection</tspan></text></g><g id="shape23-67" transform="translate(63.9,-114.102)"><title>Circle</title><path d="M0 276.8 A13.5 13.5 0 0 1 27 276.8 A13.5 13.5 0 1 1 0 276.8 Z" class="st1"/></g><g id="shape24-69" transform="translate(90,-127.602)"><title>Cause 1.21</title><path d="M0 290.3 L43.36 290.3" class="st3"/></g><g id="shape25-74" transform="translate(-188.598,253.099) rotate(-90)"><title>Label.25</title><desc>createContainer() or getContainer is called</desc><path d="M18.4 290.3 L90.4 294.8" class="st5"/><rect width="57.503" height="28.8" x="228.795" y="-32.801" class="st9" transform="rotate(90)"/><text x="228.8" y="-25.6" class="st7" transform="rotate(90)">createContainer() <tspan x="235.05" class="st8" dy="1.2em">or getContainer</tspan><tspan x="258.65" class="st8" dy="1.2em"> </tspan>is called</text></g></g></svg>