<svg xmlns="http://www.w3.org/2000/svg" xmlns:ev="http://www.w3.org/2001/xml-events" xmlns:xlink="http://www.w3.org/1999/xlink" width="985.536" height="210.869" class="st9" color-interpolation-filters="sRGB" viewBox="0 0 739.15 158.152" xml:space="preserve"><style type="text/css">.st1{fill:#4672c4;stroke:#c7c8c8;stroke-width:.25}.st2{fill:#feffff;font-family:Calibri;font-size:.833336em}.st3,.st4{stroke:#000}.st3{marker-end:url(#mrkr4-18);stroke-linecap:round;stroke-linejoin:round;stroke-width:1}.st4{fill:#000;fill-opacity:1;stroke-opacity:1;stroke-width:.28409090909091}.st5{stroke:#4672c4;stroke-linecap:round;stroke-linejoin:round;stroke-width:1}.st6{fill:#fff;stroke:none;stroke-linecap:butt;stroke-width:7.2}.st7{fill:#3d64ac;font-family:Calibri;font-size:.666664em}.st8{font-size:1em}.st9{fill:none;fill-rule:evenodd;font-size:12px;overflow:visible;stroke-linecap:square;stroke-miterlimit:3}</style><defs id="Markers"><g id="lend4"><path d="M 2 1 L 0 0 L 2 -1 L 2 1" style="stroke:none"/></g><marker id="mrkr4-18" class="st4" markerUnits="strokeWidth" orient="auto" overflow="visible" refX="-7.04"><use transform="scale(-3.52,-3.52)" xlink:href="#lend4"/></marker></defs><g><title>Page-1</title><g id="shape1-1" transform="translate(140.4,-67.9018)"><title>Rectangle</title><desc>unpublished</desc><rect width="108" height="72" x="0" y="86.152" class="st1"/><text x="28.87" y="125.15" class="st2">unpublished</text></g><g id="shape2-4" transform="translate(298.8,-67.9018)"><title>Rectangle.2</title><desc>publishing</desc><rect width="108" height="72" x="0" y="86.152" class="st1"/><text x="33.11" y="125.15" class="st2">publishing</text></g><g id="shape3-7" transform="translate(455.4,-67.6018)"><title>Rectangle.3</title><desc>published</desc><rect width="108" height="72" x="0" y="86.152" class="st1"/><text x="34.13" y="125.15" class="st2">published</text></g><g id="shape4-10" transform="translate(612.9,-67.6018)"><title>Rectangle.4</title><desc>deleted</desc><rect width="108" height="72" x="0" y="86.152" class="st1"/><text x="38.46" y="125.15" class="st2">deleted</text></g><g id="shape14-13" transform="translate(248.4,-103.902)"><title>Cause 1</title><path d="M0 158.15 L43.36 158.15" class="st3"/></g><g id="shape15-19" transform="translate(407.776,-103.899) rotate(0.35369)"><title>Cause 1.15</title><path d="M0 158.15 L41.56 158.15" class="st3"/></g><g id="shape16-24" transform="translate(563.4,-103.602)"><title>Cause 1.16</title><path d="M0 158.15 L43.36 158.15" class="st3"/></g><g id="shape17-29" transform="translate(108.248,135.052) rotate(-90)"><title>Label</title><desc>attach() is called</desc><path d="M8.8 158.15 L80.8 162.65" class="st5"/><rect width="53.112" height="9.6" x="101.04" y="-13.601" class="st6" transform="rotate(90)"/><text x="101.04" y="-6.4" class="st7" transform="rotate(90)">attach() is called</text></g><g id="shape18-34" transform="translate(267.717,139.987) rotate(-90)"><title>Label.18</title><desc>Publishing completes</desc><path d="M13.6 158.15 L85.6 160.96" class="st5"/><rect width="33.8" height="19.2" x="120.352" y="-23.201" class="st6" transform="rotate(90)"/><text x="120.8" y="-16" class="st7" transform="rotate(90)">Publishing <tspan x="120.35" class="st8" dy="1.2em">completes</tspan></text></g><g id="shape19-40" transform="translate(427.113,140.152) rotate(-90)"><title>Label.19</title><desc>Container is deleted</desc><path d="M13.6 158.15 L85.6 160.96" class="st5"/><rect width="38.781" height="19.2" x="115.371" y="-23.201" class="st6" transform="rotate(90)"/><text x="115.37" y="-16" class="st7" transform="rotate(90)">Container is <tspan x="129.29" class="st8" dy="1.2em">deleted</tspan></text></g><g id="shape20-46" transform="translate(63.9,-90.4018)"><title>Circle</title><path d="M0 144.65 A13.5 13.5 0 0 1 27 144.65 A13.5 13.5 0 1 1 0 144.65 Z" class="st1"/></g><g id="shape21-48" transform="translate(90,-103.902)"><title>Cause 1.21</title><path d="M0 158.15 L43.36 158.15" class="st3"/></g><g id="shape22-53" transform="translate(-56.4518,139.852) rotate(-90)"><title>Label.22</title><desc>createContainer() is called</desc><path d="M13.6 158.15 L85.6 162.65" class="st5"/><rect width="57.503" height="19.2" x="96.649" y="-23.201" class="st6" transform="rotate(90)"/><text x="96.65" y="-16" class="st7" transform="rotate(90)">createContainer() <tspan x="128.31" class="st8" dy="1.2em">is called</tspan></text></g></g></svg>