<svg xmlns="http://www.w3.org/2000/svg" xmlns:ev="http://www.w3.org/2001/xml-events" xmlns:xlink="http://www.w3.org/1999/xlink" width="565.533" height="297.624" class="st11" color-interpolation-filters="sRGB" viewBox="0 0 424.15 223.218" xml:space="preserve"><style type="text/css">.st1{fill:#4672c4;stroke:#c7c8c8;stroke-width:.25}.st2{fill:#feffff;font-family:Calibri;font-size:.833336em}.st3,.st4{stroke:#000}.st3{marker-end:url(#mrkr4-12);stroke-linecap:round;stroke-linejoin:round;stroke-width:1}.st4{fill:#000;fill-opacity:1;stroke-opacity:1;stroke-width:.28409090909091}.st5{stroke:#4672c4;stroke-linecap:round;stroke-linejoin:round;stroke-width:1}.st6{fill:#fff;stroke:none;stroke-linecap:butt;stroke-width:7.2}.st7{fill:#3d64ac;font-family:Calibri;font-size:.666664em}.st8{font-size:1em}.st9{marker-end:url(#mrkr2-50);stroke:#000;stroke-dasharray:.01,3.75;stroke-width:.75}.st10{fill:#000;fill-opacity:1;stroke:#000;stroke-opacity:1;stroke-width:.22935779816514}.st11{fill:none;fill-rule:evenodd;font-size:12px;overflow:visible;stroke-linecap:square;stroke-miterlimit:3}</style><defs id="Markers"><g id="lend4"><path d="M 2 1 L 0 0 L 2 -1 L 2 1" style="stroke:none"/></g><marker id="mrkr4-12" class="st4" markerUnits="strokeWidth" orient="auto" overflow="visible" refX="-7.04"><use transform="scale(-3.52,-3.52)" xlink:href="#lend4"/></marker><g id="lend2"><path d="M 1 1 L 0 0 L 1 -1 L 1 1" style="stroke:none"/></g><marker id="mrkr2-50" class="st10" markerUnits="strokeWidth" orient="auto" overflow="visible" refX="-4.36"><use transform="scale(-4.36,-4.36)" xlink:href="#lend2"/></marker></defs><g><title>Page-1</title><g id="shape1-1" transform="translate(139.5,-81.4017)"><title>Rectangle</title><desc>dirty</desc><rect width="108" height="72" x="0" y="151.218" class="st1"/><text x="44.54" y="190.22" class="st2">dirty</text></g><g id="shape2-4" transform="translate(297.9,-81.4017)"><title>Rectangle.2</title><desc>saved</desc><rect width="108" height="72" x="0" y="151.218" class="st1"/><text x="42.28" y="190.22" class="st2">saved</text></g><g id="shape14-7" transform="translate(247.5,-94.9017)"><title>Cause 1</title><path d="M0 223.22 L43.36 223.22" class="st3"/></g><g id="shape15-13" transform="translate(298.221,313.211) rotate(179.917)"><title>Cause 1.15</title><path d="M0 223.22 L43.36 223.22" class="st3"/></g><g id="shape17-18" transform="translate(42.282,205.218) rotate(-90)"><title>Label</title><desc>Fluid service acknowledges all local data</desc><path d="M18.4 223.22 L76.9 227.72" class="st5"/><rect width="55.198" height="28.8" x="164.02" y="-32.801" class="st6" transform="rotate(90)"/><text x="178.95" y="-25.6" class="st7" transform="rotate(90)">Fluid service <tspan x="164.02" class="st8" dy="1.2em">acknowledges all </tspan><tspan x="187.76" class="st8" dy="1.2em">local data</tspan></text></g><g id="shape18-25" transform="translate(140.792,45.2035) rotate(-90)"><title>Label.18</title><desc>Local data is changed</desc><path d="M13.6 151.22 L-44.83 132.84" class="st5"/><rect width="39.761" height="19.2" x="155.218" y="-23.201" class="st6" transform="rotate(90)"/><text x="155.22" y="-16" class="st7" transform="rotate(90)">Local data is <tspan x="155.22" class="st8" dy="1.2em">changed</tspan></text></g><g id="shape19-31" transform="translate(63.9,-103.902)"><title>Circle</title><path d="M0 209.72 A13.5 13.5 0 0 1 27 209.72 A13.5 13.5 0 1 1 0 209.72 Z" class="st1"/></g><g id="shape20-33" transform="translate(90,-117.402)"><title>Cause 1.21</title><path d="M0 223.22 L43.36 223.22" class="st3"/></g><g id="shape21-38" transform="translate(-121.518,196.218) rotate(-90)"><title>Label.22</title><desc>createContainer() or getContainer() is called</desc><path d="M18.4 223.22 L90.4 227.72" class="st5"/><rect width="57.503" height="28.8" x="161.715" y="-32.801" class="st6" transform="rotate(90)"/><text x="161.71" y="-25.6" class="st7" transform="rotate(90)">createContainer() <tspan x="163.12" class="st8" dy="1.2em">or getContainer()</tspan><tspan x="191.57" class="st8" dy="1.2em"> </tspan>is called</text></g><g id="shape26-45" transform="translate(223.65,293.034) rotate(180)"><title>Multi-Line</title><path d="M0 223.22 L0 245.72 L58.5 245.72 L58.5 226.49" class="st9"/></g><g id="shape27-51" transform="translate(-80.568,56.718) rotate(-90)"><title>Label.27</title><desc>Container is published and connected</desc><path d="M18.4 223.22 L9.4 272.72" class="st5"/><rect width="45.843" height="28.8" x="173.375" y="-32.801" class="st6" transform="rotate(90)"/><text x="180.44" y="-25.6" class="st7" transform="rotate(90)">Container is <tspan x="173.37" class="st8" dy="1.2em">published and </tspan><tspan x="184.98" class="st8" dy="1.2em">connected</tspan></text></g></g></svg>